<?xml version="1.0" encoding="UTF-8"?>
<!-- Generated by Pixelmator Pro 3.6.8 -->
<svg width="2032" height="2500" viewBox="0 0 2032 2500" xmlns="http://www.w3.org/2000/svg">
    <g id="Group">
        <path id="Path" fill="#6a1383" stroke="none" d="M 535.849182 2490.984131 C 531.547607 2490.984131 526.91272 2489.896729 523.690491 2485.539795 L 385.714264 2304.095215 L 385.714264 2489.174561 L 354.253967 2489.174561 L 354.253967 2261.27002 C 354.253967 2252.198486 361.761902 2244.94458 370.349213 2244.94458 C 375.349182 2244.94458 379.634918 2246.388916 382.849182 2250.746094 L 520.468262 2431.825439 L 520.468262 2247.484131 L 551.920654 2247.484131 L 551.920654 2475.008057 C 551.920654 2484.44458 544.41272 2490.976318 535.841248 2490.976318 M 796.079346 2493.158691 C 764.634949 2493.158691 731.738098 2486.618896 701 2475.015869 L 708.507935 2448.880859 C 736.746033 2457.960449 767.484131 2464.492188 796.079346 2464.492188 C 835.761902 2464.492188 856.492065 2450.333252 856.492065 2430.380859 C 856.492065 2412.238037 840.396851 2403.158691 785 2377.031738 C 729.595215 2350.904785 707.801575 2334.222168 707.801575 2301.555664 C 707.801575 2260.55542 739.246033 2243.857178 798.579407 2243.857178 C 823.245972 2243.857178 861.134888 2248.936523 882.944458 2255.476318 L 877.944458 2282.325439 C 853.976196 2276.523926 823.968262 2272.531738 799.29364 2272.531738 C 757.484131 2272.531738 740.325378 2280.507813 740.325378 2300.468262 C 740.325378 2320.063477 752.825439 2328.404785 811.452332 2355.626953 C 873.293701 2384.293457 889.015869 2398.80957 889.015869 2428.563477 C 889.015869 2471.75415 848.261902 2493.158691 796.079346 2493.158691 M 1038.079346 2247.491943 L 1070.603149 2247.491943 L 1070.603149 2489.158691 L 1038.079346 2489.158691 L 1038.079346 2247.491943 Z M 1347.285645 2379.579346 L 1266.492065 2379.579346 L 1266.492065 2461.595215 L 1347.285645 2461.595215 C 1374.801636 2461.595215 1391.603149 2444.174561 1391.603149 2419.849121 C 1391.603149 2396.991943 1374.095215 2379.579346 1347.285645 2379.579346 M 1331.547607 2275.063477 L 1266.492065 2275.063477 L 1266.492065 2352.365234 L 1331.547607 2352.365234 C 1357.642944 2352.365234 1376.58728 2335.666748 1376.58728 2312.44458 C 1376.58728 2289.587402 1360.142944 2275.063477 1331.547607 2275.063477 M 1347.642822 2489.166748 L 1250.420532 2489.166748 C 1246.060547 2489.228516 1241.859131 2487.532715 1238.763794 2484.461182 C 1235.668457 2481.389893 1233.940186 2477.20166 1233.968262 2472.841309 L 1233.968262 2263.80957 C 1233.968262 2255.095215 1241.119019 2247.484131 1250.420532 2247.484131 L 1330.841309 2247.484131 C 1380.166626 2247.484131 1409.476196 2271.793701 1409.476196 2309.896729 C 1409.476196 2330.57959 1397.317383 2349.817383 1378.730225 2361.063477 C 1406.269897 2369.412598 1424.841309 2392.269775 1424.841309 2419.849121 C 1424.841309 2458.30957 1393.031738 2489.158691 1347.642822 2489.158691 M 1581.047607 2489.166748 C 1572.126953 2489.166748 1564.976196 2481.547607 1564.976196 2472.841309 L 1564.976196 2247.491943 L 1597.492065 2247.491943 L 1597.492065 2459.777832 L 1726.888916 2459.777832 L 1726.888916 2489.166748 L 1581.047607 2489.166748 Z M 1948.619019 2493.158691 C 1882.134888 2493.158691 1842.103149 2468.484131 1842.103149 2418.77002 C 1842.103149 2395.182617 1855.333374 2372.682617 1881.071411 2362.158691 C 1860.333252 2349.095215 1849.611084 2330.587158 1849.611084 2310.269775 C 1849.611084 2265.27002 1884.293701 2243.857178 1949.341309 2243.857178 C 1971.150879 2243.857178 2001.880981 2246.396729 2027.626953 2252.206543 L 2024.047607 2279.055664 C 1996.888916 2274.698486 1971.5 2272.166748 1946.833252 2272.166748 C 1904.658691 2272.166748 1882.134888 2283.777832 1882.134888 2311.722168 C 1882.134888 2333.86499 1902.872925 2351.277588 1930.396851 2351.277588 L 1986.150879 2351.277588 C 1994.015869 2351.277588 2000.095215 2357.444336 2000.095215 2365.063477 C 2000.095215 2373.047607 1994.015869 2379.214355 1986.150879 2379.214355 L 1926.111084 2379.214355 C 1894.650757 2379.214355 1874.642822 2394.80957 1874.642822 2418.77002 C 1874.642822 2453.968262 1907.166626 2464.484131 1947.91272 2464.484131 C 1970.079346 2464.484131 2000.095215 2461.595215 2024.396851 2455.785645 L 2029.055542 2482.269775 C 2005.817505 2488.80957 1975.428589 2493.158691 1948.619019 2493.158691 M 112.206345 2292.817383 L 169.174606 2435.547607 L 83.142853 2366.738281 L 112.206345 2292.817383 Z M 213.404755 2468.428711 L 125.785713 2254.349121 C 123.293648 2248.174561 118.285713 2244.904785 112.206345 2244.904785 C 106.031029 2244.789063 100.450638 2248.570557 98.269844 2254.349121 L 2.095238 2489.166748 L 34.984127 2489.166748 L 73.063492 2392.357178 L 186.666672 2485.531738 C 191.238098 2489.285645 194.531738 2490.976318 198.825394 2490.976318 C 207.39682 2490.976318 214.912704 2484.452148 214.912704 2475.023682 C 214.912704 2473.484131 214.373016 2471.05542 213.404755 2468.436523 Z"/>
    </g>
    <path id="path1" fill="#6a1383" stroke="none" d="M 2030.785645 1014.825317 C 2030.785645 1573.992065 1577.531738 2027.246094 1018.349182 2027.246094 C 459.222229 2027.246094 5.920635 1573.992065 5.920635 1014.825317 C 5.920635 455.698364 459.222229 2.396729 1018.349182 2.396729 C 1577.523804 2.396729 2030.785645 455.698364 2030.785645 1014.825317"/>
    <path id="path2" fill="#ffffff" stroke="none" d="M 1035.396851 620.86499 L 1297.388794 1267.5 L 901.650818 955.769897 L 1035.396851 620.873047 Z M 1500.825439 1416.460327 L 1097.825439 446.603271 C 1086.317505 418.63501 1063.317383 403.825439 1035.396851 403.825439 C 1007.420593 403.825439 982.746033 418.63501 971.238098 446.603271 L 528.920593 1510.412598 L 680.230164 1510.412598 L 855.325439 1071.801514 L 1377.86499 1493.944458 C 1398.872925 1510.936523 1414.039673 1518.626953 1433.745972 1518.626953 C 1473.22229 1518.626953 1507.730103 1489.023926 1507.730103 1446.317383 C 1507.730103 1439.365112 1505.269897 1428.325317 1500.825439 1416.460327 Z"/>
</svg>
