<?xml version="1.0" encoding="UTF-8"?>
<!-- Generated by Pixelmator Pro 3.6.8 -->
<svg width="2500" height="2500" viewBox="0 0 2500 2500" xmlns="http://www.w3.org/2000/svg">
    <g id="Group">
        <path id="Path" fill="#ae2076" fill-rule="evenodd" stroke="none" d="M 1784.224487 216.504395 L 2212.966064 216.504395 L 2212.966064 616.491821 L 1784.224487 616.491821 L 1784.224487 216.504395 Z M 1784.224487 704.0896 L 2212.966064 704.0896 L 2212.966064 2189.711426 L 1784.224487 2189.711426 L 1784.224487 704.0896 Z M 1247.107666 1572.402344 C 1253.696411 1630.442139 1248.729004 1644.267822 1248.729004 1675.732544 C 1248.729004 1842.393921 1101.924194 1889.993164 1042.392944 1901.899414 C 970.644165 1916.230957 958.958496 1918.189331 875.731567 1913.805664 C 800.351196 1909.849731 694.738464 1841.732544 694.738464 1743.83667 C 694.738464 1658.897705 768.264038 1591.468018 869.972961 1591.468018 L 1170.9104 1591.468018 C 1201.557861 1591.455078 1247.107666 1572.402344 1247.107666 1572.402344 Z M 1046.244995 655.349243 C 1138.550903 660.588989 1280.206543 663.922241 1413.237427 746.007935 C 1578.80957 848.144775 1661.387939 1008.905029 1661.387939 1157.240234 C 1661.387939 1511.30188 1662.321899 2065.123779 1662.321899 2065.123779 L 1721.956787 2189.503662 L 1254.733887 2189.503662 L 1254.733887 2099.402832 C 1215.669067 2099.402832 1110.354492 2163.214111 1032.626709 2179.166992 C 933.641479 2199.503662 888.882874 2203.990967 787.913208 2203.990967 C 521.203003 2203.990967 297.059479 2000.249023 287.150574 1777.791748 C 287.150574 1776.650146 287.409973 1764.549438 287.150574 1756.508301 C 276.68399 1437.101807 564.145874 1288.027344 838.858459 1288.027344 L 1047.541992 1288.027344 C 1207.238647 1288.027344 1258.53418 1200.455444 1258.53418 1128.045288 C 1258.53418 1073.196167 1232.789185 968.050293 1039.020874 968.050293 L 987.919922 968.050293 C 834.59137 968.050293 772.595947 1034.234985 767.148621 1166.137573 L 767.148621 1208.042725 L 363.334991 1208.042725 L 363.334991 1112.818848 C 363.334991 908.233765 583.756104 629.033569 1046.244995 655.349243 Z"/>
    </g>
</svg>
